# xmcd
#
# Track frame offsets: 
#        150
#        17472
#        32317
#        51627
#        69255
#        83825
#        108707
#        125135
#        139565
#        157037
#        170020
#        186202
#
# Disc length: 2666 seconds
#
# Revision: 3
# Processed by: cddbd v1.5.1PL0 Copyright (c) Steve Scherf et al.
# Submitted via: ExactAudioCopy v0.95a5
#
DISCID=a20a680c
DTITLE=Hound Dog Taylor and the Houserockers - Hound Dog Taylor and th
DTITLE=e Houserockers
DYEAR=1971
DGENRE=Blues
TTITLE0=She's Gone
TTITLE1=Walking The Ceiling
TTITLE2=Held My Baby Last Night
TTITLE3=Taylor's Rock
TTITLE4=It's Alright
TTITLE5=Phillip's Theme
TTITLE6=Wild About You Baby
TTITLE7=I Just Can't Make It
TTITLE8=It Hurts Me Too
TTITLE9=44 Blues
TTITLE10=Give Me Back My Wig
TTITLE11=55th Street Boogie
EXTD=ALCD 4701\n\nSubmitted 6/20/97\n[Jmccoy@efn.org]
EXTT0=
EXTT1=
EXTT2=
EXTT3=
EXTT4=
EXTT5=
EXTT6=
EXTT7=
EXTT8=
EXTT9=
EXTT10=
EXTT11=
PLAYORDER=
